<?xml version="1.0" encoding="UTF-8"?><svg xmlns="http://www.w3.org/2000/svg" xmlns:xlink="http://www.w3.org/1999/xlink" height="340.4" preserveAspectRatio="xMidYMid meet" version="1.0" viewBox="65.3 29.8 1178.8 340.4" width="1178.8" zoomAndPan="magnify"><g><linearGradient gradientTransform="rotate(180 -1183.83 -9378.94)" gradientUnits="userSpaceOnUse" id="a" x1="-3611.808" x2="-2432.959" xlink:actuate="onLoad" xlink:show="other" xlink:type="simple" xmlns:xlink="http://www.w3.org/1999/xlink" y1="-18957.881" y2="-18957.881"><stop offset="0" stop-color="#d2d2d2"/><stop offset=".182" stop-color="#b0b0b0"/><stop offset=".38" stop-color="#8e8e8f"/><stop offset=".751" stop-color="#c6c6c6"/><stop offset="1" stop-color="#f9f9f9"/></linearGradient><path d="M243.19,29.81h823.07c98.09,0,177.89,76.35,177.89,170.19c0,93.85-79.8,170.2-177.89,170.2H243.19 C145.1,370.19,65.3,293.85,65.3,200C65.3,106.15,145.1,29.81,243.19,29.81z M1066.26,330.09c75.97,0,137.78-58.36,137.78-130.09 s-61.81-130.08-137.78-130.08H243.19c-75.97,0-137.78,58.36-137.78,130.09c0,71.73,61.81,130.08,137.78,130.08H1066.26z" fill="url(#a)"/></g><g id="change1_1"><path d="M1077.16,295.8H232.29c-52.52,0-95.1-42.58-95.1-95.1v-1.41c0-52.52,42.58-95.1,95.1-95.1h844.87 c52.52,0,95.1,42.58,95.1,95.1v1.41C1172.25,253.23,1129.68,295.8,1077.16,295.8z" fill="#FFF"/></g></svg>